<?xml version="1.0" encoding="UTF-8"?>
<svg width="785px" height="533px" viewBox="0 0 785 533" version="1.1" xmlns="http://www.w3.org/2000/svg" xmlns:xlink="http://www.w3.org/1999/xlink">
    <!-- Generator: Sketch 47.1 (45422) - http://www.bohemiancoding.com/sketch -->
    <title>Group</title>
    <desc>Created with Sketch.</desc>
    <defs></defs>
    <g id="Page-1" stroke="none" stroke-width="1" fill="none" fill-rule="evenodd">
        <g id="Group" transform="translate(1.000000, 0.000000)">
            <path d="M115.769231,294 C118.100478,315.178888 122.121311,330.512221 127.831731,340 C133.54215,349.487779 149.006894,365.154445 174.225962,387 C198.139242,402.333014 216.387639,411.666347 228.971154,415 C282.736062,429.24352 329.742216,426 356.091346,426 C387.956737,426 423.392654,422.820141 464.653846,397 C493.418269,379 527,348 540.740385,313 C551.775154,284.89184 560.350962,256 564,237 C567.649038,218 576,132.845212 576,93 C576,66.4365256 573.216346,46.1031923 567.649038,32 C544.777507,28.6078272 528.384879,28.6078272 518.471154,32 C517.12838,32.459456 516.216633,24.6271529 511.975962,17 C507.10741,8.24356004 498.791631,-0.423261264 496.201923,1 C493.017165,2.75029102 493.418269,23 493.418269,26 C493.418269,27.588306 467.674934,14.6611189 464.653846,17 C463.413499,17.9602582 465.980656,25.1468252 472.076923,32 C479.178121,39.9828767 490.059989,47.7296385 489.706731,48 C475.242185,59.07026 454.828723,84.4035934 428.466346,124 L402.485577,137 C361.498854,123.991829 329.670328,116.325162 307,114 C268,110 239.201445,113.5702 228.971154,114 C216.48459,114.524591 121.600962,122 115.769231,131 C109.9375,140 133.586538,148 154,158 C166.35531,164.05253 111.212154,162.043475 107.418269,169 C101.152178,180.489602 135.537793,197.339004 127.831731,199 C114.944176,201.777836 130.026711,218.45546 127.831731,222 C122.397083,230.776082 108.15776,224.313238 107.418269,229.148155 C106.421025,235.668305 122.633979,241.389329 107.418269,244 C93.2054206,246.438603 80.3486706,242.277984 69.375,244 C12.4203682,252.937467 3,251 0,258 C0,274 2.33136582,308.110442 15,307 C23.3933413,306.2643 37.1911074,306.527974 64.7355769,294 C69.3137431,291.917726 7.43023612,331.412833 18,327 C20.0275238,326.153517 42.5701396,373.350187 59.1682692,363 C69.0709762,356.824915 87.9379633,333.824915 115.769231,294 Z" id="Path" stroke="#979797" fill="#151515"></path>
            <path d="M567,32 C605.835654,32 658.724089,35.2111039 702.629484,56 C716.047421,62.3532991 737.528435,73.7556341 757.568009,97 C767.249604,108.229907 786.7541,132 782.462028,138 C779.600646,142 710.355214,133.666667 574.72573,113" id="Path-2" fill="#F08700"></path>
            <path d="M758.426423,137 C758.426423,147.196347 751.272969,155.196347 736.966062,161 C708.325237,172.618263 710.637695,170.286236 684.60278,174 C642.540472,180 650.283664,176.714227 627.947426,178 C620.094746,178.452035 600.92349,177.118702 570.433658,174 L574.72573,113" id="Path-3" fill="#D56900"></path>
            <path d="M292,425 C292,445.878723 292.285209,483.125567 301,507 C305.920294,520.479294 319,534 324,532 C327.333333,530.666667 324.666667,522.333333 316,507 C329.333333,521 337.333333,527.333333 340,526 C342.666667,524.666667 339,516 329,500 C345.666667,509.333333 355,513 357,511 C359,509 355.333333,503.666667 346,495 L338,488 C330.908729,484.339836 326.575396,482.006503 325,481 C323.424604,479.993497 318.091271,478.82683 309,477.5 L307,425" id="Path-4" fill="#E67B00"></path>
            <path d="M385.20112,424 C384.072709,442.822543 383.739375,456.155877 384.20112,464 C384.646826,471.571652 387.146307,480.83556 389.20112,487 C397.073044,510.615771 440.379797,529.072062 439.20112,522 C438.860434,519.955884 430.193767,511.289217 413.20112,496 C436.974649,507.049119 449.641315,511.715785 451.20112,510 C451.885509,509.247172 441.373518,501.580505 419.665147,487 C441.378225,494.124612 452.890216,496.457945 454.20112,494 C455.512024,491.542055 444.845357,485.875388 422.20112,477 L401.20112,471 L396.20112,423" id="Path-5" fill="#E67B00"></path>
            <path d="M394.538388,139 C401.125619,196.838286 401.125619,237.17162 394.538388,260 C384.657543,294.24257 384.86483,300.837754 340.434431,318 C296.004032,335.162246 271.750579,334.503905 234.029981,322 C196.309382,309.496095 181.793928,312.449707 167.301767,251 C157.640326,210.033529 164.253032,169.033529 187.139884,128" id="Path-6" fill="#080403"></path>
            <circle id="Oval" fill="#FFFFFF" cx="520" cy="97" r="47"></circle>
            <ellipse id="Oval-2" fill="#6C3E14" cx="529.5" cy="96" rx="30.5" ry="32"></ellipse>
            <ellipse id="Oval-3" fill="#FFFFFF" cx="540.5" cy="89" rx="9.5" ry="10"></ellipse>
            <path d="M573,38 C615.104492,35.4517295 654.721634,41.8046413 691.851425,57.0587354 C728.981217,72.3128296 755.697408,95.2932511 772,126 C749.097213,102.013847 733.220244,87.1632547 724.369093,81.4482242 C708.354035,71.1075866 690.441761,66.3423268 677.624946,62.1398789 C654.182795,54.4535379 619.307814,51.4069116 573,53 L573,38 Z" id="Path-7" fill="#F4AC63"></path>
        </g>
    </g>
</svg>